<svg xmlns="http://www.w3.org/2000/svg" viewBox="130 180 320 135" fill="#2563eb">
  <polygon points="439.91 251.99 395.35 235.63 362.73 237.47 274.18 184.78 137.11 184.73 262.3 207.52 221.38 218.31 288.61 232.34 251.98 243.54 307.39 255.91 248.41 297.85 353.76 274.98 390.02 255.44 439.91 251.99"/>
  <path d="M242,300.68l62-44.08-57.53-12.85L283,232.6l-67.7-14.13,40.57-10.7-119-21.66.25-2.79,137.46.06L363.08,236l32.48-1.83,51,18.73-56.16,3.88-36.16,19.49-.2.05Zm15.49-57.35,53.29,11.9-56,39.79,98.46-21.37,36.35-19.59,43.63-3-38.11-14-32.76,1.85L273.8,186.19l-121.08-.05,116,21.13L227.5,218.15l66.76,13.94Z"/>
  <path d="M242.57,308.56l62-44.09L247,251.63l36.48-11.16-67.69-14.13,40.57-10.69L137.42,194l.25-2.78,137.46.05,88.51,52.67,32.49-1.83,51,18.72L391,264.69l-36.16,19.5-.2,0Zm15.48-57.36,53.29,11.9-56,39.8,98.45-21.37,36.35-19.6,43.63-3-38.11-14-32.76,1.85-88.58-52.72L153.28,194l116.06,21.14L228.07,226,294.82,240Z"/>
</svg>
